#!OML:ASF E:\Style4\Style4.ASF
:FULLY-SPECIFIED
:DEGREES
1576
root -0.00339101 17.9174 -0.937251 2.10302 0.00322199 2.38683
lowerback 5.38433 2.22962 -0.443419
upperback 0.853392 2.93749 -0.235409
thorax -2.147 1.46689 -0.203289
lowerneck -1.2612 -4.95622 -5.92298
upperneck 5.00642 -6.60674 3.41896
head 2.14918 -3.33103 1.9522
rclavicle 6.21202e-015 1.59028e-015
rhumerus -45.9582 25.3404 -97.4316
rradius 87.1106
rwrist -33.987
rhand -23.3265 28.1054
rfingers 7.12502
rthumb 3.1278 -1.85137
lclavicle 6.21202e-015 1.59028e-015
lhumerus -48.7511 -34.6303 103.868
lradius 83.3826
lwrist 8.78331
lhand -13.1093 19.599
lfingers 7.12502
lthumb 12.9878 49.1747
rfemur -11.3842 3.77142 16.0266
rtibia 28.3288
rfoot -17.7468 -13.4944
rtoes -12.1656
lfemur -9.59805 -4.47015 -21.272
ltibia 25.1329
lfoot -17.8946 10.1948
ltoes -14.9149
1577
root -0.00404 17.9153 -0.939275 2.05796 0.00911263 2.41959
lowerback 5.41259 2.22076 -0.482159
upperback 0.877292 2.92337 -0.232351
thorax -2.14029 1.4601 -0.178123
lowerneck -1.21115 -4.95427 -5.90265
upperneck 4.94518 -6.60489 3.38604
head 2.11748 -3.33043 1.93945
rclavicle -2.87741e-014 1.03368e-014
rhumerus -45.6135 25.3318 -97.1678
rradius 86.9709
rwrist -33.9219
rhand -23.3541 28.1596
rfingers 7.12502
rthumb 3.10115 -1.79757
lclavicle -2.87741e-014 1.03368e-014
lhumerus -48.662 -34.7063 103.836
lradius 83.2727
lwrist 8.80784
lhand -12.9839 19.5554
lfingers 7.12502
lthumb 13.1087 49.1234
rfemur -11.3648 3.79111 15.9953
rtibia 28.375
rfoot -17.7643 -13.5271
rtoes -11.937
lfemur -9.56763 -4.48342 -21.2996
ltibia 25.1538
lfoot -17.9272 10.1514
ltoes -14.7539
1578
root -0.00391072 17.914 -0.94036 2.04767 0.0247522 2.36536
lowerback 5.3963 2.21017 -0.415398
upperback 0.877058 2.91386 -0.206312
thorax -2.12945 1.45498 -0.187289
lowerneck -1.18076 -4.96428 -5.87615
upperneck 4.96649 -6.61788 3.32371
head 2.11566 -3.33807 1.91442
rclavicle 2.08724e-015 4.77083e-015
rhumerus -45.3613 25.2852 -96.895
rradius 86.9293
rwrist -33.9137
rhand -23.2978 28.0413
rfingers 7.12502
rthumb 3.15551 -1.91514
lclavicle 2.08724e-015 4.77083e-015
lhumerus -48.5877 -34.7535 103.806
lradius 83.1517
lwrist 8.76463
lhand -12.8282 19.4384
lfingers 7.12502
lthumb 13.2588 48.9967
rfemur -11.3559 3.76598 16.0634
rtibia 28.4029
rfoot -17.8377 -13.4562
rtoes -12.01
lfemur -9.57836 -4.44776 -21.2416
ltibia 25.195
lfoot -17.926 10.1388
ltoes -15.036
1579
root -0.0042781 17.9149 -0.942109 2.08811 0.0400944 2.33829
lowerback 5.34802 2.20672 -0.382657
upperback 0.866774 2.91183 -0.189774
thorax -2.11229 1.45383 -0.186656
lowerneck -1.25618 -4.96931 -5.92425
upperneck 5.05871 -6.6225 3.36613
head 2.16397 -3.34038 1.93428
rclavicle -1.01877e-014 -9.93923e-015
rhumerus -45.1152 25.1993 -96.6098
rradius 86.8967
rwrist -33.9501
rhand -23.2156 27.98
rfingers 7.12502
rthumb 3.23484 -1.97519
lclavicle -1.01877e-014 -9.93923e-015
lhumerus -48.5312 -34.7702 103.77
lradius 83.0491
lwrist 8.65483
lhand -12.7566 19.208
lfingers 7.12502
lthumb 13.3278 48.7618
rfemur -11.4001 3.74626 16.0944
rtibia 28.4163
rfoot -17.8876 -13.4198
rtoes -12.0433
lfemur -9.65789 -4.39399 -21.2151
ltibia 25.2561
lfoot -17.9005 10.2057
ltoes -15.6615
1580
root -0.0060263 17.9148 -0.943329 2.07131 0.00551813 2.36519
lowerback 5.35634 2.21127 -0.435755
upperback 0.873624 2.91495 -0.183716
thorax -2.11286 1.45576 -0.151238
lowerneck -1.25218 -4.95832 -5.98088
upperneck 5.06345 -6.60896 3.41597
head 2.16893 -3.33375 1.96121
rclavicle -3.54334e-014 1.82882e-014
rhumerus -44.8637 25.1208 -96.3466
rradius 86.878
rwrist -34.0099
rhand -23.2068 27.9561
rfingers 7.12502
rthumb 3.2434 -1.999
lclavicle -3.54334e-014 1.82882e-014
lhumerus -48.4451 -34.7845 103.736
lradius 82.9279
lwrist 8.61996
lhand -12.8379 19.1303
lfingers 7.12502
lthumb 13.2494 48.6892
rfemur -11.389 3.78536 16.0668
rtibia 28.4095
rfoot -17.8688 -13.4047
rtoes -11.8778
lfemur -9.67578 -4.32856 -21.246
ltibia 25.3224
lfoot -17.8743 10.2632
ltoes -16.0177
1581
root -0.00614603 17.9141 -0.944794 2.0646 0.0323494 2.36355
lowerback 5.33965 2.19943 -0.431467
upperback 0.890263 2.8996 -0.183216
thorax -2.08621 1.44809 -0.150873
lowerneck -1.2537 -4.95625 -5.95732
upperneck 5.04549 -6.60682 3.42066
head 2.16233 -3.332 1.95874
rclavicle -2.22639e-014 5.96354e-015
rhumerus -44.5808 25.0117 -96.0642
rradius 86.8673
rwrist -34.0687
rhand -23.1965 27.9086
rfingers 7.12502
rthumb 3.25337 -2.0463
lclavicle -2.22639e-014 5.96354e-015
lhumerus -48.3009 -34.8396 103.648
lradius 82.7682
lwrist 8.65479
lhand -12.8866 19.0592
lfingers 7.12502
lthumb 13.2025 48.6211
rfemur -11.3642 3.7567 16.0681
rtibia 28.3632
rfoot -17.8372 -13.3915
rtoes -11.8899
lfemur -9.71716 -4.33918 -21.2434
ltibia 25.3978
lfoot -17.9137 10.2313
ltoes -15.959
1582
root -0.00650003 17.9129 -0.948138 2.04853 0.0896544 2.3646
lowerback 5.34324 2.19109 -0.419296
upperback 0.909339 2.88911 -0.187762
thorax -2.06775 1.44277 -0.161228
lowerneck -1.2931 -4.96568 -5.93023
upperneck 5.05912 -6.6188 3.43092
head 2.17383 -3.33698 1.95591
rclavicle -2.80286e-014 1.55052e-014
rhumerus -44.2818 24.8874 -95.7698
rradius 86.8089
rwrist -34.0503
rhand -23.2069 27.9845
rfingers 7.12502
rthumb 3.24327 -1.97053
lclavicle -2.80286e-014 1.55052e-014
lhumerus -48.1827 -34.955 103.573
lradius 82.6382
lwrist 8.71156
lhand -13.1018 19.0216
lfingers 7.12502
lthumb 12.9951 48.5969
rfemur -11.3662 3.75618 16.0626
rtibia 28.3177
rfoot -17.8636 -13.4681
rtoes -11.9818
lfemur -9.75388 -4.36869 -21.2448
ltibia 25.4566
lfoot -17.8731 10.2508
ltoes -16.2951
1583
root -0.00809921 17.9107 -0.951806 2.03964 0.175563 2.3113
lowerback 5.37089 2.17336 -0.352644
upperback 0.902868 2.86917 -0.186016
thorax -2.08663 1.43236 -0.196538
lowerneck -1.37966 -4.9854 -5.92178
upperneck 5.16382 -6.64488 3.47912
head 2.22728 -3.34867 1.96665
rclavicle 3.62782e-015 -1.35174e-014
rhumerus -44.0133 24.7691 -95.5208
rradius 86.7307
rwrist -34.0469
rhand -23.3061 28.1013
rfingers 7.12502
rthumb 3.14754 -1.85525
lclavicle 3.62782e-015 -1.35174e-014
lhumerus -48.0888 -35.0606 103.471
lradius 82.5521
lwrist 8.89279
lhand -13.2503 19.1348
lfingers 7.12502
lthumb 12.8519 48.7191
rfemur -11.4219 3.79649 16.1254
rtibia 28.3013
rfoot -17.9333 -13.6665
rtoes -11.8968
lfemur -9.80003 -4.40909 -21.1781
ltibia 25.5063
lfoot -17.8099 10.2493
ltoes -16.4159
1584
root -0.0106026 17.91 -0.955375 2.01293 0.217883 2.28575
lowerback 5.42019 2.15736 -0.348066
upperback 0.898366 2.84816 -0.171189
thorax -2.11931 1.42184 -0.18459
lowerneck -1.42565 -4.99202 -5.8785
upperneck 5.23512 -6.65277 3.45994
head 2.25678 -3.35218 1.95081
rclavicle 2.90226e-014 6.36111e-015
rhumerus -43.7508 24.7031 -95.2792
rradius 86.6528
rwrist -34.0492
rhand -23.37 28.0411
rfingers 7.12502
rthumb 3.08582 -1.91635
lclavicle 2.90226e-014 6.36111e-015
lhumerus -47.9654 -35.0433 103.321
lradius 82.47
lwrist 8.95856
lhand -13.102 19.4126
lfingers 7.12502
lthumb 12.9949 48.9878
rfemur -11.4092 3.81941 16.173
rtibia 28.3213
rfoot -17.8866 -13.7639
rtoes -11.822
lfemur -9.82035 -4.40633 -21.1373
ltibia 25.556
lfoot -17.7904 10.1231
ltoes -15.8501
1585
root -0.0123239 17.9105 -0.957219 2.0122 0.224906 2.31597
lowerback 5.41487 2.13664 -0.403018
upperback 0.895531 2.81757 -0.165213
thorax -2.12218 1.40699 -0.145465
lowerneck -1.48889 -4.98463 -5.84534
upperneck 5.32405 -6.63811 3.39017
head 2.29222 -3.34574 1.92037
rclavicle 1.38155e-014 3.57812e-015
rhumerus -43.4841 24.6684 -95.0281
rradius 86.5464
rwrist -34.0139
rhand -23.4188 28.025
rfingers 7.12502
rthumb 3.03864 -1.9331
lclavicle 1.38155e-014 3.57812e-015
lhumerus -47.7965 -34.9682 103.134
lradius 82.332
lwrist 8.84825
lhand -12.9548 19.5602
lfingers 7.12502
lthumb 13.1368 49.1264
rfemur -11.3718 3.78351 16.1557
rtibia 28.3703
rfoot -17.7843 -13.6609
rtoes -11.8551
lfemur -9.85215 -4.42892 -21.1608
ltibia 25.6031
lfoot -17.8177 10.0232
ltoes -15.1851
1586
root -0.0130749 17.9102 -0.959244 1.99992 0.225746 2.2921
lowerback 5.42213 2.12634 -0.399066
upperback 0.889415 2.8046 -0.140521
thorax -2.13355 1.40055 -0.121884
lowerneck -1.48553 -4.98717 -5.815
upperneck 5.3403 -6.63872 3.31299
head 2.29208 -3.34728 1.88955
rclavicle -2.5842e-015 3.18055e-015
rhumerus -43.2608 24.5867 -94.758
rradius 86.4801
rwrist -33.9641
rhand -23.373 28.0431
rfingers 7.12502
rthumb 3.08291 -1.91436
lclavicle -2.5842e-015 3.18055e-015
lhumerus -47.6083 -34.9222 102.937
lradius 82.1761
lwrist 8.8058
lhand -12.8877 19.5882
lfingers 7.12502
lthumb 13.2015 49.1502
rfemur -11.3674 3.81895 16.1964
rtibia 28.449
rfoot -17.7646 -13.6663
rtoes -11.9401
lfemur -9.86292 -4.42024 -21.1287
ltibia 25.627
lfoot -17.8792 10.059
ltoes -15.5252
